<svg width="21" height="22" viewBox="0 0 21 22" fill="none" xmlns="http://www.w3.org/2000/svg">
<path d="M10.25 0.75V0H10.25L10.25 0.75ZM17.6387 8.13867H18.3887V8.13865L17.6387 8.13867ZM17.6387 11.8828H16.8887C16.8887 12.2116 17.1028 12.502 17.4169 12.5993L17.6387 11.8828ZM19.75 15.75V16.5C20.1642 16.5 20.5 16.1642 20.5 15.75H19.75ZM0.75 15.75H0C0 16.1642 0.335786 16.5 0.75 16.5L0.75 15.75ZM2.86133 11.8828L3.08314 12.5993C3.39721 12.502 3.61133 12.2116 3.61133 11.8828H2.86133ZM2.86133 8.13867L2.11133 8.13865V8.13867H2.86133ZM10.25 0.75V1.5C13.9165 1.5 16.8886 4.4722 16.8887 8.13869L17.6387 8.13867L18.3887 8.13865C18.3885 3.6438 14.7449 0 10.25 0V0.75ZM17.6387 8.13867H16.8887V11.8828H17.6387H18.3887V8.13867H17.6387ZM17.6387 11.8828L17.4169 12.5993C18.3345 12.8834 19 13.7401 19 14.75H19.75H20.5C20.5 13.0648 19.3891 11.6396 17.8605 11.1664L17.6387 11.8828ZM19.75 14.75H19V15.75H19.75H20.5V14.75H19.75ZM19.75 15.75V15H0.75V15.75V16.5H19.75V15.75ZM0.75 15.75H1.5V14.75H0.75H0V15.75H0.75ZM0.75 14.75H1.5C1.5 13.7401 2.16553 12.8834 3.08314 12.5993L2.86133 11.8828L2.63951 11.1664C1.11089 11.6396 0 13.0648 0 14.75H0.75ZM2.86133 11.8828H3.61133V8.13867H2.86133H2.11133V11.8828H2.86133ZM2.86133 8.13867L3.61133 8.13869C3.61143 4.4722 6.58354 1.5 10.25 1.5L10.25 0.75L10.25 0C5.75507 3.8147e-06 2.11146 3.64381 2.11133 8.13865L2.86133 8.13867Z" fill="#838383"/>
<path d="M10.2499 20.75C11.9988 20.75 13.4166 19.4069 13.4166 17.75H7.08325C7.08325 19.4069 8.50102 20.75 10.2499 20.75Z" stroke="#838383" stroke-width="1.5" stroke-linejoin="round"/>
</svg>
