<svg width="83" height="63" viewBox="0 0 83 63" fill="none" xmlns="http://www.w3.org/2000/svg">
<path d="M1 8.62842C1 6.97156 2.34315 5.62842 4 5.62842H79C80.6569 5.62842 82 6.97156 82 8.62842V58.1713C82 59.8281 80.6569 61.1713 79 61.1713H4C2.34314 61.1713 1 59.8281 1 58.1713V8.62842Z" fill="#838383" stroke="#838383" stroke-width="2"/>
<path d="M41.5002 19.6714C51.6384 19.6717 59.8567 27.8906 59.8567 38.0288C59.8565 48.1668 51.6383 56.385 41.5002 56.3853C31.362 56.3853 23.143 48.167 23.1428 38.0288C23.1428 27.8904 31.3619 19.6714 41.5002 19.6714ZM41.4993 25.4565C34.5567 25.4568 28.9283 31.0853 28.928 38.0278C28.928 44.9707 34.5565 50.5989 41.4993 50.5991C48.4423 50.5991 54.0706 44.9708 54.0706 38.0278C54.0702 31.0851 48.4421 25.4565 41.4993 25.4565Z" fill="#FFFEFB"/>
<path d="M7.94287 3C7.94287 1.89543 8.8383 1 9.94287 1H17.5143C18.6189 1 19.5143 1.89543 19.5143 3V5.62857H7.94287V3Z" fill="#838383" stroke="#838383" stroke-width="2"/>
<rect x="34.5571" y="9.09985" width="13.8857" height="5.78571" rx="1" fill="#FFFEFB"/>
</svg>
