<svg width="39" height="38" viewBox="0 0 39 38" fill="none" xmlns="http://www.w3.org/2000/svg">
<path d="M18.8203 0.75C20.2457 0.750213 21.4011 1.9057 21.4014 3.33105C21.4012 4.45441 20.6825 5.40799 19.6807 5.7627V9.39746C21.5502 9.58308 23.2432 10.3676 24.5664 11.5557L27.2529 9.10742C26.8178 8.43507 26.5645 7.63393 26.5645 6.77344C26.5645 4.39735 28.4901 2.47079 30.8662 2.4707C33.2423 2.4707 35.1689 4.3973 35.1689 6.77344C35.1688 9.14942 33.2422 11.0762 30.8662 11.0762C29.9735 11.0761 29.1444 10.8034 28.457 10.3379L25.7266 12.8262C26.6317 14.042 27.2233 15.5052 27.3818 17.0957H30.9756C31.3588 15.6129 32.706 14.5176 34.3086 14.5176C36.2094 14.5177 37.75 16.0591 37.75 17.96C37.7496 19.8605 36.2092 21.4013 34.3086 21.4014C32.7036 21.4014 31.3545 20.3027 30.9736 18.8164H27.3828C27.2118 20.5459 26.5268 22.1237 25.4854 23.3984L28.1494 26.0625C28.5738 25.8339 29.0593 25.7042 29.5752 25.7041C31.2385 25.7041 32.5869 27.0525 32.5869 28.7158C32.5866 30.3789 31.2383 31.7275 29.5752 31.7275C27.9123 31.7273 26.5648 30.3787 26.5645 28.7158C26.5645 28.1946 26.6967 27.7039 26.9297 27.2764L24.2705 24.6172C22.9948 25.6628 21.4135 26.3484 19.6807 26.5205V30.1143C21.165 30.4964 22.2617 31.8446 22.2617 33.4482C22.2614 35.3488 20.7209 36.8894 18.8203 36.8896C16.9196 36.8896 15.3782 35.3489 15.3779 33.4482C15.3779 31.8443 16.4752 30.4962 17.96 30.1143V26.5205C16.089 26.3348 14.395 25.55 13.0713 24.3604L9.86133 27.2871C9.85995 27.2883 9.85778 27.2888 9.85645 27.29C10.0849 27.7144 10.2148 28.2001 10.2148 28.7158C10.2145 30.3787 8.867 31.7273 7.2041 31.7275C5.541 31.7275 4.1927 30.3789 4.19238 28.7158C4.19238 27.0525 5.54081 25.7041 7.2041 25.7041C7.72619 25.7042 8.21746 25.8365 8.64551 26.0703C8.66301 26.0512 8.68164 26.0325 8.70117 26.0146L11.9102 23.0879C11.0058 21.8713 10.4151 20.4074 10.2578 18.8164H6.48145C5.99849 19.8349 4.96384 20.541 3.76172 20.541C2.09853 20.541 0.750172 19.1924 0.75 17.5293C0.750015 15.866 2.09843 14.5176 3.76172 14.5176C5.27769 14.5176 6.53093 15.638 6.74121 17.0957H10.2588C10.4314 15.3642 11.1172 13.7837 12.1621 12.5088L9.50293 9.84961C9.07551 10.0825 8.58545 10.2148 8.06445 10.2148C6.40126 10.2148 5.05291 8.86627 5.05273 7.20312C5.05298 5.54004 6.40131 4.19238 8.06445 4.19238C9.72746 4.19255 11.0759 5.54014 11.0762 7.20312C11.0761 7.71899 10.9444 8.20448 10.7158 8.62891L13.3799 11.293C14.6539 10.2521 16.2316 9.56902 17.96 9.39746V5.7627C16.9577 5.40819 16.2384 4.45467 16.2383 3.33105C16.2385 1.90557 17.3948 0.75 18.8203 0.75ZM20.9717 18.8193C20.2588 18.8193 19.6807 19.3975 19.6807 20.1104C19.6807 20.8232 20.2588 21.4014 20.9717 21.4014C21.6843 21.4011 22.2617 20.823 22.2617 20.1104C22.2617 19.3977 21.6843 18.8196 20.9717 18.8193ZM16.6689 13.6572C15.481 13.6572 14.5178 14.6197 14.5176 15.8076C14.5176 16.9957 15.4809 17.959 16.6689 17.959C17.8569 17.9588 18.8203 16.9956 18.8203 15.8076C18.8201 14.6198 17.8568 13.6574 16.6689 13.6572Z" fill="white"/>
<path d="M18.8203 0.75L18.8204 0H18.8203V0.75ZM21.4014 3.33105L22.1514 3.33115V3.33094L21.4014 3.33105ZM19.6807 5.7627L19.4304 5.0557L18.9307 5.23261V5.7627H19.6807ZM19.6807 9.39746H18.9307V10.0767L19.6066 10.1438L19.6807 9.39746ZM24.5664 11.5557L24.0653 12.1137L24.5701 12.567L25.0716 12.11L24.5664 11.5557ZM27.2529 9.10742L27.7581 9.66177L28.228 9.23357L27.8826 8.6999L27.2529 9.10742ZM26.5645 6.77344H25.8145V6.7735L26.5645 6.77344ZM30.8662 2.4707V1.7207H30.8662L30.8662 2.4707ZM35.1689 6.77344L35.9189 6.77349V6.77344H35.1689ZM30.8662 11.0762L30.8662 11.8262H30.8662V11.0762ZM28.457 10.3379L28.8776 9.71689L28.3885 9.38566L27.9519 9.78355L28.457 10.3379ZM25.7266 12.8262L25.2214 12.2718L24.7194 12.7293L25.125 13.274L25.7266 12.8262ZM27.3818 17.0957L26.6355 17.1701L26.7029 17.8457H27.3818V17.0957ZM30.9756 17.0957V17.8457H31.5564L31.7017 17.2834L30.9756 17.0957ZM34.3086 14.5176L34.3086 13.7676H34.3086V14.5176ZM37.75 17.96L38.5 17.9601V17.96H37.75ZM34.3086 21.4014V22.1514H34.3086L34.3086 21.4014ZM30.9736 18.8164L31.7002 18.6302L31.5557 18.0664H30.9736V18.8164ZM27.3828 18.8164V18.0664H26.7033L26.6365 18.7426L27.3828 18.8164ZM25.4854 23.3984L24.9045 22.9239L24.4754 23.4492L24.955 23.9288L25.4854 23.3984ZM28.1494 26.0625L27.6191 26.5928L28.0137 26.9875L28.5051 26.7228L28.1494 26.0625ZM29.5752 25.7041V24.9541H29.5751L29.5752 25.7041ZM32.5869 28.7158L33.3369 28.716V28.7158H32.5869ZM29.5752 31.7275L29.5751 32.4775H29.5752V31.7275ZM26.5645 28.7158H25.8145V28.716L26.5645 28.7158ZM26.9297 27.2764L27.5882 27.6353L27.8567 27.1427L27.46 26.746L26.9297 27.2764ZM24.2705 24.6172L24.8008 24.0869L24.3205 23.6065L23.7951 24.0371L24.2705 24.6172ZM19.6807 26.5205L19.6066 25.7742L18.9307 25.8413V26.5205H19.6807ZM19.6807 30.1143H18.9307V30.6956L19.4937 30.8406L19.6807 30.1143ZM22.2617 33.4482L23.0117 33.4483V33.4482H22.2617ZM18.8203 36.8896V37.6396H18.8204L18.8203 36.8896ZM15.3779 33.4482H14.6279V33.4483L15.3779 33.4482ZM17.96 30.1143L18.1468 30.8406L18.71 30.6958V30.1143H17.96ZM17.96 26.5205H18.71V25.8413L18.0341 25.7742L17.96 26.5205ZM13.0713 24.3604L13.5726 23.8025L13.0677 23.3487L12.566 23.8061L13.0713 24.3604ZM9.86133 27.2871L10.3426 27.8623L10.3549 27.8521L10.3666 27.8413L9.86133 27.2871ZM9.85645 27.29L9.35501 26.7323L8.9166 27.1265L9.19607 27.6456L9.85645 27.29ZM10.2148 28.7158L10.9648 28.716V28.7158H10.2148ZM7.2041 31.7275V32.4775H7.20421L7.2041 31.7275ZM4.19238 28.7158H3.44238V28.716L4.19238 28.7158ZM7.2041 25.7041L7.20421 24.9541H7.2041V25.7041ZM8.64551 26.0703L8.28598 26.7285L8.80222 27.0105L9.19909 26.5763L8.64551 26.0703ZM8.70117 26.0146L8.19577 25.4605L8.19548 25.4608L8.70117 26.0146ZM11.9102 23.0879L12.4156 23.642L12.9168 23.1849L12.5121 22.6405L11.9102 23.0879ZM10.2578 18.8164L11.0042 18.7426L10.9373 18.0664H10.2578V18.8164ZM6.48145 18.8164V18.0664H6.00704L5.80377 18.4951L6.48145 18.8164ZM3.76172 20.541V21.291H3.76173L3.76172 20.541ZM0.75 17.5293L0 17.5293V17.5294L0.75 17.5293ZM3.76172 14.5176L3.76173 13.7676H3.76172V14.5176ZM6.74121 17.0957L5.99889 17.2028L6.09164 17.8457H6.74121V17.0957ZM10.2588 17.0957V17.8457H10.9377L11.0051 17.1701L10.2588 17.0957ZM12.1621 12.5088L12.7422 12.9842L13.1728 12.4588L12.6924 11.9785L12.1621 12.5088ZM9.50293 9.84961L10.0333 9.31928L9.63664 8.92266L9.1441 9.19102L9.50293 9.84961ZM8.06445 10.2148V10.9648H8.06453L8.06445 10.2148ZM5.05273 7.20312L4.30273 7.20301V7.2032L5.05273 7.20312ZM8.06445 4.19238L8.06453 3.44238H8.06445V4.19238ZM11.0762 7.20312L11.8262 7.2032V7.20301L11.0762 7.20312ZM10.7158 8.62891L10.0555 8.27324L9.79085 8.76459L10.1855 9.15924L10.7158 8.62891ZM13.3799 11.293L12.8496 11.8233L13.3292 12.3029L13.8544 11.8738L13.3799 11.293ZM17.96 9.39746L18.034 10.1438L18.71 10.0767V9.39746H17.96ZM17.96 5.7627H18.71V5.23245L18.2101 5.05563L17.96 5.7627ZM16.2383 3.33105L15.4883 3.33094V3.33115L16.2383 3.33105ZM20.9717 18.8193L20.972 18.0693H20.9717V18.8193ZM19.6807 20.1104L18.9307 20.1103V20.1104H19.6807ZM20.9717 21.4014V22.1514H20.972L20.9717 21.4014ZM22.2617 20.1104H23.0117V20.1103L22.2617 20.1104ZM16.6689 13.6572L16.669 12.9072H16.6689V13.6572ZM14.5176 15.8076L13.7676 15.8075V15.8076H14.5176ZM16.6689 17.959V18.709H16.669L16.6689 17.959ZM18.8203 15.8076H19.5703V15.8075L18.8203 15.8076ZM18.8203 0.75L18.8202 1.5C19.8314 1.50015 20.6512 2.31993 20.6514 3.33117L21.4014 3.33105L22.1514 3.33094C22.1511 1.49146 20.6599 0.000275493 18.8204 0L18.8203 0.75ZM21.4014 3.33105L20.6514 3.33096C20.6513 4.12556 20.1433 4.80328 19.4304 5.0557L19.6807 5.7627L19.931 6.46969C21.2217 6.01271 22.1512 4.78325 22.1514 3.33115L21.4014 3.33105ZM19.6807 5.7627H18.9307V9.39746H19.6807H20.4307V5.7627H19.6807ZM19.6807 9.39746L19.6066 10.1438C21.3118 10.3131 22.8566 11.0284 24.0653 12.1137L24.5664 11.5557L25.0675 10.9976C23.6297 9.7067 21.7885 8.85305 19.7548 8.65113L19.6807 9.39746ZM24.5664 11.5557L25.0716 12.11L27.7581 9.66177L27.2529 9.10742L26.7478 8.55308L24.0612 11.0013L24.5664 11.5557ZM27.2529 9.10742L27.8826 8.6999C27.5233 8.14493 27.3145 7.48459 27.3145 6.77338L26.5645 6.77344L25.8145 6.7735C25.8145 7.78327 26.1122 8.72522 26.6233 9.51495L27.2529 9.10742ZM26.5645 6.77344H27.3145C27.3145 4.81137 28.9046 3.22078 30.8662 3.2207L30.8662 2.4707L30.8662 1.7207C28.0757 1.72081 25.8145 3.98334 25.8145 6.77344H26.5645ZM30.8662 2.4707V3.2207C32.8281 3.2207 34.4189 4.81151 34.4189 6.77344H35.1689H35.9189C35.9189 3.98309 33.6566 1.7207 30.8662 1.7207V2.4707ZM35.1689 6.77344L34.4189 6.77338C34.4188 8.73525 32.828 10.3262 30.8662 10.3262V11.0762V11.8262C33.6565 11.8262 35.9187 9.56359 35.9189 6.77349L35.1689 6.77344ZM30.8662 11.0762L30.8662 10.3262C30.1286 10.3261 29.4452 10.1013 28.8776 9.71689L28.457 10.3379L28.0365 10.9589C28.8437 11.5055 29.8184 11.8261 30.8662 11.8262L30.8662 11.0762ZM28.457 10.3379L27.9519 9.78355L25.2214 12.2718L25.7266 12.8262L26.2317 13.3805L28.9622 10.8922L28.457 10.3379ZM25.7266 12.8262L25.125 13.274C25.9513 14.384 26.4908 15.7189 26.6355 17.1701L27.3818 17.0957L28.1281 17.0213C27.9557 15.2915 27.3121 13.7 26.3282 12.3783L25.7266 12.8262ZM27.3818 17.0957V17.8457H30.9756V17.0957V16.3457H27.3818V17.0957ZM30.9756 17.0957L31.7017 17.2834C32.0015 16.1236 33.0562 15.2676 34.3086 15.2676V14.5176V13.7676C32.3559 13.7676 30.7162 15.1022 30.2494 16.908L30.9756 17.0957ZM34.3086 14.5176L34.3085 15.2676C35.795 15.2677 37 16.4731 37 17.96H37.75H38.5C38.5 15.6451 36.6239 13.7677 34.3086 13.7676L34.3086 14.5176ZM37.75 17.96L37 17.9598C36.9997 19.4463 35.7948 20.6513 34.3085 20.6514L34.3086 21.4014L34.3086 22.1514C36.6235 22.1512 38.4995 20.2746 38.5 17.9601L37.75 17.96ZM34.3086 21.4014V20.6514C33.0542 20.6514 31.9981 19.7926 31.7002 18.6302L30.9736 18.8164L30.2471 19.0026C30.711 20.8127 32.3529 22.1514 34.3086 22.1514V21.4014ZM30.9736 18.8164V18.0664H27.3828V18.8164V19.5664H30.9736V18.8164ZM27.3828 18.8164L26.6365 18.7426C26.4805 20.3198 25.856 21.7593 24.9045 22.9239L25.4854 23.3984L26.0662 23.8729C27.1976 22.4881 27.9431 20.772 28.1292 18.8902L27.3828 18.8164ZM25.4854 23.3984L24.955 23.9288L27.6191 26.5928L28.1494 26.0625L28.6797 25.5322L26.0157 22.8681L25.4854 23.3984ZM28.1494 26.0625L28.5051 26.7228C28.8229 26.5516 29.1865 26.4542 29.5753 26.4541L29.5752 25.7041L29.5751 24.9541C28.9321 24.9542 28.3248 25.1161 27.7937 25.4022L28.1494 26.0625ZM29.5752 25.7041V26.4541C30.8243 26.4541 31.8369 27.4667 31.8369 28.7158H32.5869H33.3369C33.3369 26.6383 31.6527 24.9541 29.5752 24.9541V25.7041ZM32.5869 28.7158L31.8369 28.7157C31.8367 29.9647 30.8239 30.9775 29.5752 30.9775V31.7275V32.4775C31.6527 32.4775 33.3365 30.793 33.3369 28.716L32.5869 28.7158ZM29.5752 31.7275L29.5753 30.9775C28.3269 30.9774 27.3147 29.9648 27.3145 28.7157L26.5645 28.7158L25.8145 28.716C25.8148 30.7926 27.4977 32.4772 29.5751 32.4775L29.5752 31.7275ZM26.5645 28.7158H27.3145C27.3145 28.3229 27.4139 27.9552 27.5882 27.6353L26.9297 27.2764L26.2711 26.9175C25.9795 27.4526 25.8145 28.0664 25.8145 28.7158H26.5645ZM26.9297 27.2764L27.46 26.746L24.8008 24.0869L24.2705 24.6172L23.7402 25.1475L26.3994 27.8067L26.9297 27.2764ZM24.2705 24.6172L23.7951 24.0371C22.6302 24.9919 21.1876 25.6172 19.6066 25.7742L19.6807 26.5205L19.7548 27.2668C21.6395 27.0797 23.3594 26.3336 24.7459 25.1973L24.2705 24.6172ZM19.6807 26.5205H18.9307V30.1143H19.6807H20.4307V26.5205H19.6807ZM19.6807 30.1143L19.4937 30.8406C20.6546 31.1395 21.5117 32.1948 21.5117 33.4482H22.2617H23.0117C23.0117 31.4943 21.6755 29.8534 19.8677 29.3879L19.6807 30.1143ZM22.2617 33.4482L21.5117 33.4481C21.5115 34.9346 20.3066 36.1395 18.8202 36.1396L18.8203 36.8896L18.8204 37.6396C21.1351 37.6394 23.0114 35.763 23.0117 33.4483L22.2617 33.4482ZM18.8203 36.8896V36.1396C17.3336 36.1396 16.1281 34.9345 16.1279 33.4481L15.3779 33.4482L14.6279 33.4483C14.6283 35.7633 16.5055 37.6396 18.8203 37.6396V36.8896ZM15.3779 33.4482H16.1279C16.1279 32.1947 16.9855 31.1393 18.1468 30.8406L17.96 30.1143L17.7731 29.3879C15.9649 29.853 14.6279 31.4938 14.6279 33.4482H15.3779ZM17.96 30.1143H18.71V26.5205H17.96H17.21V30.1143H17.96ZM17.96 26.5205L18.0341 25.7742C16.3273 25.6047 14.7816 24.8891 13.5726 23.8025L13.0713 24.3604L12.57 24.9182C14.0083 26.2109 15.8507 27.0648 17.8859 27.2668L17.96 26.5205ZM13.0713 24.3604L12.566 23.8061L9.35601 26.7329L9.86133 27.2871L10.3666 27.8413L13.5766 24.9146L13.0713 24.3604ZM9.86133 27.2871L9.38003 26.7119C9.40497 26.691 9.42785 26.6747 9.44642 26.6624C9.46497 26.6501 9.48102 26.6406 9.49269 26.6341C9.50429 26.6276 9.51366 26.6227 9.51861 26.6202C9.52282 26.618 9.52716 26.6159 9.52496 26.617C9.52454 26.6172 9.51894 26.62 9.51208 26.6235C9.50491 26.6273 9.49341 26.6334 9.47958 26.6415C9.4657 26.6496 9.44749 26.6608 9.42686 26.6752C9.4062 26.6897 9.38147 26.7085 9.35501 26.7323L9.85645 27.29L10.3579 27.8478C10.3318 27.8713 10.3074 27.8898 10.2871 27.904C10.2669 27.9182 10.249 27.9292 10.2356 27.937C10.2222 27.9448 10.2111 27.9507 10.2043 27.9542C10.2009 27.9561 10.198 27.9575 10.1961 27.9584C10.1944 27.9593 10.193 27.96 10.1928 27.9601C10.192 27.9605 10.1934 27.9598 10.1942 27.9594C10.1954 27.9588 10.1976 27.9577 10.2004 27.9563C10.2058 27.9535 10.2156 27.9484 10.2277 27.9417C10.2397 27.9349 10.2562 27.9252 10.2751 27.9127C10.2941 27.9001 10.3173 27.8835 10.3426 27.8623L9.86133 27.2871ZM9.85645 27.29L9.19607 27.6456C9.36728 27.9636 9.46484 28.3274 9.46484 28.7158H10.2148H10.9648C10.9648 28.0727 10.8026 27.4652 10.5168 26.9345L9.85645 27.29ZM10.2148 28.7158L9.46484 28.7157C9.46461 29.9648 8.45241 30.9774 7.20399 30.9775L7.2041 31.7275L7.20421 32.4775C9.28158 32.4772 10.9645 30.7926 10.9648 28.716L10.2148 28.7158ZM7.2041 31.7275V30.9775C5.95535 30.9775 4.94262 29.9647 4.94238 28.7157L4.19238 28.7158L3.44238 28.716C3.44277 30.793 5.12664 32.4775 7.2041 32.4775V31.7275ZM4.19238 28.7158H4.94238C4.94238 27.4667 5.95502 26.4541 7.2041 26.4541V25.7041V24.9541C5.12659 24.9541 3.44238 26.6383 3.44238 28.7158H4.19238ZM7.2041 25.7041L7.20399 26.4541C7.59801 26.4542 7.96597 26.5537 8.28598 26.7285L8.64551 26.0703L9.00504 25.4121C8.46895 25.1193 7.85437 24.9542 7.20421 24.9541L7.2041 25.7041ZM8.64551 26.0703L9.19909 26.5763C9.2018 26.5734 9.20448 26.5707 9.20687 26.5685L8.70117 26.0146L8.19548 25.4608C8.1588 25.4943 8.12423 25.529 8.09193 25.5643L8.64551 26.0703ZM8.70117 26.0146L9.20657 26.5688L12.4156 23.642L11.9102 23.0879L11.4048 22.5338L8.19577 25.4605L8.70117 26.0146ZM11.9102 23.0879L12.5121 22.6405C11.6864 21.5297 11.1477 20.1943 11.0042 18.7426L10.2578 18.8164L9.51145 18.8902C9.68256 20.6206 10.3252 22.2128 11.3082 23.5353L11.9102 23.0879ZM10.2578 18.8164V18.0664H6.48145V18.8164V19.5664H10.2578V18.8164ZM6.48145 18.8164L5.80377 18.4951C5.43955 19.2632 4.66173 19.791 3.76171 19.791L3.76172 20.541L3.76173 21.291C5.26595 21.291 6.55742 20.4067 7.15912 19.1377L6.48145 18.8164ZM3.76172 20.541V19.791C2.51282 19.791 1.50013 18.7783 1.5 17.5292L0.75 17.5293L0 17.5294C0.000214934 19.6066 1.68424 21.291 3.76172 21.291V20.541ZM0.75 17.5293L1.5 17.5293C1.50001 16.2802 2.51265 15.2676 3.76172 15.2676V14.5176V13.7676C1.68421 13.7676 1.83582e-05 15.4518 0 17.5293L0.75 17.5293ZM3.76172 14.5176L3.76171 15.2676C4.89907 15.2676 5.84102 16.1083 5.99889 17.2028L6.74121 17.0957L7.48353 16.9886C7.22084 15.1676 5.6563 13.7676 3.76173 13.7676L3.76172 14.5176ZM6.74121 17.0957V17.8457H10.2588V17.0957V16.3457H6.74121V17.0957ZM10.2588 17.0957L11.0051 17.1701C11.1626 15.5903 11.788 14.1484 12.7422 12.9842L12.1621 12.5088L11.582 12.0334C10.4464 13.419 9.70026 15.138 9.51249 17.0213L10.2588 17.0957ZM12.1621 12.5088L12.6924 11.9785L10.0333 9.31928L9.50293 9.84961L8.9726 10.3799L11.6318 13.0391L12.1621 12.5088ZM9.50293 9.84961L9.1441 9.19102C8.82402 9.36541 8.45695 9.46481 8.06438 9.46484L8.06445 10.2148L8.06453 10.9648C8.71394 10.9648 9.327 10.7996 9.86176 10.5082L9.50293 9.84961ZM8.06445 10.2148V9.46484C6.81555 9.46484 5.80286 8.45212 5.80273 7.20305L5.05273 7.20312L4.30273 7.2032C4.30295 9.28043 5.98697 10.9648 8.06445 10.9648V10.2148ZM5.05273 7.20312L5.80273 7.20324C5.80292 5.95448 6.81532 4.94238 8.06445 4.94238V4.19238V3.44238C5.9873 3.44238 4.30305 5.1256 4.30273 7.20301L5.05273 7.20312ZM8.06445 4.19238L8.06438 4.94238C9.31351 4.94251 10.326 5.95466 10.3262 7.20324L11.0762 7.20312L11.8262 7.20301C11.8259 5.12562 10.1414 3.44259 8.06453 3.44238L8.06445 4.19238ZM11.0762 7.20312L10.3262 7.20305C10.3261 7.58981 10.2277 7.95363 10.0555 8.27324L10.7158 8.62891L11.3761 8.98458C11.6612 8.45533 11.8261 7.84816 11.8262 7.2032L11.0762 7.20312ZM10.7158 8.62891L10.1855 9.15924L12.8496 11.8233L13.3799 11.293L13.9102 10.7626L11.2462 8.09858L10.7158 8.62891ZM13.3799 11.293L13.8544 11.8738C15.0178 10.9232 16.4573 10.3003 18.034 10.1438L17.96 9.39746L17.8859 8.65113C16.006 8.83774 14.2899 9.58095 12.9054 10.7122L13.3799 11.293ZM17.96 9.39746H18.71V5.7627H17.96H17.21V9.39746H17.96ZM17.96 5.7627L18.2101 5.05563C17.4966 4.80327 16.9884 4.12553 16.9883 3.33096L16.2383 3.33105L15.4883 3.33115C15.4885 4.7838 16.4188 6.01311 17.7099 6.46977L17.96 5.7627ZM16.2383 3.33105L16.9883 3.33117C16.9884 2.32006 17.8087 1.5 18.8203 1.5V0.75V0C16.9808 0 15.4886 1.49107 15.4883 3.33094L16.2383 3.33105ZM20.9717 18.8193V18.0693C19.8446 18.0693 18.9307 18.9833 18.9307 20.1103L19.6807 20.1104L20.4307 20.1104C20.4307 19.8117 20.6731 19.5693 20.9717 19.5693V18.8193ZM19.6807 20.1104H18.9307C18.9307 21.2374 19.8446 22.1514 20.9717 22.1514V21.4014V20.6514C20.6731 20.6514 20.4307 20.409 20.4307 20.1104H19.6807ZM20.9717 21.4014L20.972 22.1514C22.099 22.151 23.0117 21.2368 23.0117 20.1104H22.2617H21.5117C21.5117 20.4093 21.2696 20.6513 20.9714 20.6514L20.9717 21.4014ZM22.2617 20.1104L23.0117 20.1103C23.0117 18.9839 22.099 18.0698 20.972 18.0693L20.9717 18.8193L20.9714 19.5693C21.2695 19.5694 21.5117 19.8114 21.5117 20.1104L22.2617 20.1104ZM16.6689 13.6572V12.9072C15.0671 12.9072 13.7678 14.2052 13.7676 15.8075L14.5176 15.8076L15.2676 15.8077C15.2677 15.0343 15.8949 14.4072 16.6689 14.4072V13.6572ZM14.5176 15.8076H13.7676C13.7676 17.4099 15.0667 18.709 16.6689 18.709V17.959V17.209C15.8951 17.209 15.2676 16.5815 15.2676 15.8076H14.5176ZM16.6689 17.959L16.669 18.709C18.271 18.7088 19.5703 17.4099 19.5703 15.8076H18.8203H18.0703C18.0703 16.5813 17.4427 17.2089 16.6689 17.209L16.6689 17.959ZM18.8203 15.8076L19.5703 15.8075C19.57 14.2052 18.2706 12.9074 16.669 12.9072L16.6689 13.6572L16.6689 14.4072C17.4429 14.4073 18.0702 15.0345 18.0703 15.8077L18.8203 15.8076Z" fill="#838383"/>
</svg>
