<svg width="37" height="37" viewBox="0 0 37 37" fill="none" xmlns="http://www.w3.org/2000/svg">
<path d="M18.0703 0C19.4957 0.000213483 20.6511 1.1557 20.6514 2.58105C20.6512 3.70441 19.9325 4.65799 18.9307 5.0127V8.64746C20.8002 8.83308 22.4932 9.61756 23.8164 10.8057L26.5029 8.35742C26.0678 7.68507 25.8145 6.88393 25.8145 6.02344C25.8145 3.64735 27.7401 1.72079 30.1162 1.7207C32.4923 1.7207 34.4189 3.6473 34.4189 6.02344C34.4188 8.39942 32.4922 10.3262 30.1162 10.3262C29.2235 10.3261 28.3944 10.0534 27.707 9.58789L24.9766 12.0762C25.8817 13.292 26.4733 14.7552 26.6318 16.3457H30.2256C30.6088 14.8629 31.956 13.7676 33.5586 13.7676C35.4594 13.7677 37 15.3091 37 17.21C36.9996 19.1105 35.4592 20.6513 33.5586 20.6514C31.9536 20.6514 30.6045 19.5527 30.2236 18.0664H26.6328C26.4618 19.7959 25.7768 21.3737 24.7354 22.6484L27.3994 25.3125C27.8238 25.0839 28.3093 24.9542 28.8252 24.9541C30.4885 24.9541 31.8369 26.3025 31.8369 27.9658C31.8366 29.6289 30.4883 30.9775 28.8252 30.9775C27.1623 30.9773 25.8148 29.6287 25.8145 27.9658C25.8145 27.4446 25.9467 26.9539 26.1797 26.5264L23.5205 23.8672C22.2448 24.9128 20.6635 25.5984 18.9307 25.7705V29.3643C20.415 29.7464 21.5117 31.0946 21.5117 32.6982C21.5114 34.5988 19.9709 36.1394 18.0703 36.1396C16.1696 36.1396 14.6282 34.5989 14.6279 32.6982C14.6279 31.0943 15.7252 29.7462 17.21 29.3643V25.7705C15.339 25.5848 13.645 24.8 12.3213 23.6104L9.11133 26.5371C9.10995 26.5383 9.10778 26.5388 9.10645 26.54C9.33492 26.9644 9.46484 27.4501 9.46484 27.9658C9.46453 29.6287 8.117 30.9773 6.4541 30.9775C4.791 30.9775 3.4427 29.6289 3.44238 27.9658C3.44238 26.3025 4.79081 24.9541 6.4541 24.9541C6.97619 24.9542 7.46746 25.0865 7.89551 25.3203C7.91301 25.3012 7.93164 25.2825 7.95117 25.2646L11.1602 22.3379C10.2558 21.1213 9.66514 19.6574 9.50781 18.0664H5.73145C5.24849 19.0849 4.21384 19.791 3.01172 19.791C1.34853 19.791 0.000172083 18.4424 0 16.7793C1.46889e-05 15.116 1.34843 13.7676 3.01172 13.7676C4.52769 13.7676 5.78093 14.888 5.99121 16.3457H9.50879C9.68142 14.6142 10.3672 13.0337 11.4121 11.7588L8.75293 9.09961C8.32551 9.33248 7.83545 9.46479 7.31445 9.46484C5.65126 9.46484 4.30291 8.11627 4.30273 6.45312C4.30298 4.79004 5.65131 3.44238 7.31445 3.44238C8.97746 3.44255 10.3259 4.79014 10.3262 6.45312C10.3261 6.96899 10.1944 7.45448 9.96582 7.87891L12.6299 10.543C13.9039 9.50208 15.4816 8.81902 17.21 8.64746V5.0127C16.2077 4.65819 15.4884 3.70467 15.4883 2.58105C15.4885 1.15557 16.6448 0 18.0703 0ZM20.2217 18.0693C19.5088 18.0693 18.9307 18.6475 18.9307 19.3604C18.9307 20.0732 19.5088 20.6514 20.2217 20.6514C20.9343 20.6511 21.5117 20.073 21.5117 19.3604C21.5117 18.6477 20.9343 18.0696 20.2217 18.0693ZM15.9189 12.9072C14.731 12.9072 13.7678 13.8697 13.7676 15.0576C13.7676 16.2457 14.7309 17.209 15.9189 17.209C17.1069 17.2088 18.0703 16.2456 18.0703 15.0576C18.0701 13.8698 17.1068 12.9074 15.9189 12.9072Z" fill="#363636"/>
</svg>
