<svg width="38" height="35" viewBox="0 0 38 35" fill="none" xmlns="http://www.w3.org/2000/svg">
<path d="M13.0149 0C15.5334 0.000157706 17.5754 2.042 17.5754 4.56055V29.8965C17.5752 32.4148 15.5332 34.4559 13.0149 34.4561C10.4964 34.4561 8.4546 32.4149 8.45435 29.8965V29.3857C7.10492 30.5685 5.12348 30.8885 3.41724 30.04C1.16245 28.9188 0.243487 26.1826 1.3645 23.9277L2.77563 21.0869C1.81295 20.6776 0.984446 19.938 0.480713 18.9287C-0.643534 16.6755 0.271474 13.937 2.52466 12.8125L4.55396 11.7988C4.50429 11.7136 4.45608 11.6267 4.41138 11.5371C3.28681 9.28382 4.20207 6.54551 6.45532 5.4209L8.45728 4.41992C8.53153 1.96629 10.5433 0 13.0149 0Z" fill="#363636"/>
<path d="M24.9856 0C22.4671 0.000121631 20.425 2.04198 20.425 4.56055V29.8965C20.4253 32.4148 22.4672 34.4559 24.9856 34.4561C27.5041 34.4561 29.5459 32.4149 29.5461 29.8965V29.3857C30.8956 30.5687 32.8779 30.8885 34.5842 30.04C36.8386 28.9187 37.7578 26.1824 36.637 23.9277L35.2258 21.0869C36.1881 20.6776 37.0162 19.9377 37.5198 18.9287C38.644 16.6755 37.729 13.937 35.4758 12.8125L33.4465 11.7988C33.4962 11.7136 33.5444 11.6267 33.5891 11.5371C34.7137 9.28383 33.7984 6.54553 31.5452 5.4209L29.5432 4.41992C29.469 1.96629 27.4572 0 24.9856 0Z" fill="#363636"/>
</svg>
