<svg width="40" height="36" viewBox="0 0 40 36" fill="none" xmlns="http://www.w3.org/2000/svg">
<path d="M18.2935 25.6472C18.2935 21.457 15.4547 20.9236 11.5796 21.457" stroke="#838383" stroke-width="1.5" stroke-linecap="round"/>
<path d="M13.7651 0.75L13.7652 0H13.7651V0.75ZM18.3257 30.6465L19.0757 30.6466V30.6465H18.3257ZM13.7651 35.2061V35.9561H13.7652L13.7651 35.2061ZM9.20459 30.6465H8.45459V30.6466L9.20459 30.6465ZM9.20459 30.1357H9.95459C9.95459 29.8413 9.78236 29.5742 9.51422 29.4526C9.24608 29.3311 8.93164 29.3777 8.71024 29.5717L9.20459 30.1357ZM4.16748 30.79L3.83353 31.4616L3.83355 31.4616L4.16748 30.79ZM2.11475 24.6777L2.78633 25.0116L2.78644 25.0114L2.11475 24.6777ZM3.52588 21.8369L4.19757 22.1706C4.28948 21.9855 4.301 21.7708 4.2294 21.577C4.15781 21.3832 4.00944 21.2275 3.81931 21.1467L3.52588 21.8369ZM1.23096 19.6787L0.559854 20.0136L0.559888 20.0136L1.23096 19.6787ZM3.2749 13.5625L3.60982 14.2336L3.61005 14.2334L3.2749 13.5625ZM5.3042 12.5488L5.63935 13.2198C5.82476 13.1272 5.96358 12.9619 6.02287 12.7633C6.08215 12.5647 6.0566 12.3505 5.95229 12.1714L5.3042 12.5488ZM5.16162 12.2871L4.49055 12.622L4.49058 12.6221L5.16162 12.2871ZM7.20557 6.1709L7.5405 6.84196L7.54098 6.84172L7.20557 6.1709ZM9.20752 5.16992L9.54293 5.84074C9.78972 5.71735 9.94883 5.46841 9.95718 5.19261L9.20752 5.16992ZM13.7651 0.75L13.7651 1.5C15.8695 1.50013 17.5757 3.20626 17.5757 5.31055H18.3257H19.0757C19.0757 2.37774 16.6978 0.000183642 13.7652 0L13.7651 0.75ZM18.3257 5.31055H17.5757V30.6465H18.3257H19.0757V5.31055H18.3257ZM18.3257 30.6465L17.5757 30.6464C17.5755 32.7504 15.8694 34.4559 13.7651 34.4561L13.7651 35.2061L13.7652 35.9561C16.6975 35.9559 19.0754 33.5792 19.0757 30.6466L18.3257 30.6465ZM13.7651 35.2061V34.4561C11.6607 34.4561 9.9548 32.7505 9.95459 30.6464L9.20459 30.6465L8.45459 30.6466C8.45489 33.5793 10.8326 35.9561 13.7651 35.9561V35.2061ZM9.20459 30.6465H9.95459V30.1357H9.20459H8.45459V30.6465H9.20459ZM9.20459 30.1357L8.71024 29.5717C7.58151 30.561 5.92585 30.8268 4.50141 30.1185L4.16748 30.79L3.83355 31.4616C5.8216 32.4502 8.12881 32.0759 9.69894 30.6998L9.20459 30.1357ZM4.16748 30.79L4.50143 30.1185C2.61747 29.1816 1.84971 26.8956 2.78633 25.0116L2.11475 24.6777L1.44316 24.3439C0.137747 26.9696 1.20792 30.1559 3.83353 31.4616L4.16748 30.79ZM2.11475 24.6777L2.78644 25.0114L4.19757 22.1706L3.52588 21.8369L2.85418 21.5033L1.44305 24.3441L2.11475 24.6777ZM3.52588 21.8369L3.81931 21.1467C3.01382 20.8043 2.32283 20.187 1.90203 19.3438L1.23096 19.6787L0.559888 20.0136C1.14655 21.1891 2.11257 22.051 3.23245 22.5271L3.52588 21.8369ZM1.23096 19.6787L1.90206 19.3439C0.962703 17.4612 1.72728 15.1731 3.60982 14.2336L3.2749 13.5625L2.93999 12.8914C0.316159 14.2009 -0.749283 17.3897 0.559854 20.0136L1.23096 19.6787ZM3.2749 13.5625L3.61005 14.2334L5.63935 13.2198L5.3042 12.5488L4.96905 11.8779L2.93975 12.8916L3.2749 13.5625ZM5.3042 12.5488L5.95229 12.1714C5.90768 12.0948 5.8679 12.0227 5.83266 11.9521L5.16162 12.2871L4.49058 12.6221C4.54474 12.7306 4.60138 12.8323 4.6561 12.9263L5.3042 12.5488ZM5.16162 12.2871L5.83269 11.9522C4.89313 10.0696 5.65778 7.78163 7.5405 6.84196L7.20557 6.1709L6.87064 5.49984C4.24684 6.80939 3.18099 9.99805 4.49055 12.622L5.16162 12.2871ZM7.20557 6.1709L7.54098 6.84172L9.54293 5.84074L9.20752 5.16992L8.87211 4.4991L6.87016 5.50008L7.20557 6.1709ZM9.20752 5.16992L9.95718 5.19261C10.0192 3.14279 11.7003 1.5 13.7651 1.5V0.75V0C10.8867 0 8.54434 2.28979 8.45786 5.14723L9.20752 5.16992Z" fill="#838383"/>
<path d="M11.6556 12.2012C11.2634 12.3343 11.0534 12.7603 11.1866 13.1525C11.3197 13.5447 11.7457 13.7547 12.1379 13.6215L11.8967 12.9113L11.6556 12.2012ZM18.4833 12.9113L18.6731 12.1857C17.2429 11.8115 16.1029 11.5967 15.004 11.5902C13.8928 11.5837 12.8661 11.7901 11.6556 12.2012L11.8967 12.9113L12.1379 13.6215C13.2395 13.2474 14.0961 13.0849 14.9952 13.0902C15.9066 13.0956 16.9038 13.2733 18.2934 13.6369L18.4833 12.9113Z" fill="#838383"/>
<path d="M21.2084 25.6472C21.2084 21.457 24.0473 20.9236 27.9224 21.457" stroke="#838383" stroke-width="1.5" stroke-linecap="round"/>
<path d="M25.7358 0.75L25.7358 0H25.7358V0.75ZM21.1753 30.6465L20.4253 30.6466V30.6465H21.1753ZM25.7358 35.2061V35.9561H25.7358L25.7358 35.2061ZM30.2964 30.6465H31.0464V30.6466L30.2964 30.6465ZM30.2964 30.1357H29.5464C29.5464 29.8413 29.7186 29.5742 29.9868 29.4526C30.2549 29.3311 30.5694 29.3777 30.7908 29.5718L30.2964 30.1357ZM35.3345 30.79L35.6685 31.4616L35.6684 31.4616L35.3345 30.79ZM37.3872 24.6777L36.7156 25.0116L36.7155 25.0114L37.3872 24.6777ZM35.9761 21.8369L35.3044 22.1706C35.2125 21.9856 35.201 21.7709 35.2725 21.5771C35.3441 21.3833 35.4924 21.2276 35.6825 21.1468L35.9761 21.8369ZM38.27 19.6787L38.9411 20.0135L38.9411 20.0136L38.27 19.6787ZM36.2261 13.5625L35.8912 14.2336L35.8909 14.2334L36.2261 13.5625ZM34.1968 12.5488L33.8616 13.2198C33.6762 13.1272 33.5374 12.9619 33.4781 12.7633C33.4188 12.5648 33.4444 12.3505 33.5487 12.1714L34.1968 12.5488ZM34.3394 12.2871L35.0104 12.622L35.0104 12.6221L34.3394 12.2871ZM32.2954 6.1709L31.9605 6.84195L31.96 6.84172L32.2954 6.1709ZM30.2935 5.16992L29.958 5.84074C29.7113 5.71735 29.5521 5.46841 29.5438 5.19261L30.2935 5.16992ZM25.7358 0.75L25.7359 1.5C23.6315 1.5001 21.9253 3.20623 21.9253 5.31055H21.1753H20.4253C20.4253 2.37773 22.8031 0.000141621 25.7358 0L25.7358 0.75ZM21.1753 5.31055H21.9253V30.6465H21.1753H20.4253V5.31055H21.1753ZM21.1753 30.6465L21.9253 30.6464C21.9255 32.7504 23.6315 34.456 25.7359 34.4561L25.7358 35.2061L25.7358 35.9561C22.8034 35.9559 20.4256 33.5792 20.4253 30.6466L21.1753 30.6465ZM25.7358 35.2061V34.4561C27.8402 34.4561 29.5462 32.7505 29.5464 30.6464L30.2964 30.6465L31.0464 30.6466C31.0461 33.5793 28.6684 35.9561 25.7358 35.9561V35.2061ZM30.2964 30.6465H29.5464V30.1357H30.2964H31.0464V30.6465H30.2964ZM30.2964 30.1357L30.7908 29.5718C31.9194 30.5611 33.5759 30.8269 35.0005 30.1185L35.3345 30.79L35.6684 31.4616C33.6803 32.4502 31.3722 32.0762 29.802 30.6997L30.2964 30.1357ZM35.3345 30.79L35.0005 30.1185C36.8842 29.1816 37.652 26.8953 36.7156 25.0116L37.3872 24.6777L38.0588 24.3439C39.364 26.9695 38.2936 30.1558 35.6685 31.4616L35.3345 30.79ZM37.3872 24.6777L36.7155 25.0114L35.3044 22.1706L35.9761 21.8369L36.6478 21.5033L38.0589 24.3441L37.3872 24.6777ZM35.9761 21.8369L35.6825 21.1468C36.4875 20.8043 37.1782 20.1869 37.599 19.3438L38.27 19.6787L38.9411 20.0136C38.3547 21.1886 37.3893 22.0508 36.2697 22.5271L35.9761 21.8369ZM38.27 19.6787L37.5989 19.3439C38.5383 17.4612 37.7737 15.1731 35.8912 14.2336L36.2261 13.5625L36.561 12.8914C39.1848 14.2009 40.2502 17.3898 38.9411 20.0135L38.27 19.6787ZM36.2261 13.5625L35.8909 14.2334L33.8616 13.2198L34.1968 12.5488L34.5319 11.8779L36.5612 12.8916L36.2261 13.5625ZM34.1968 12.5488L33.5487 12.1714C33.5933 12.0948 33.6331 12.0227 33.6683 11.9521L34.3394 12.2871L35.0104 12.6221C34.9562 12.7306 34.8996 12.8323 34.8449 12.9263L34.1968 12.5488ZM34.3394 12.2871L33.6683 11.9522C34.6078 10.0696 33.8432 7.78165 31.9605 6.84195L32.2954 6.1709L32.6303 5.49984C35.2541 6.80941 36.32 9.99806 35.0104 12.622L34.3394 12.2871ZM32.2954 6.1709L31.96 6.84172L29.958 5.84074L30.2935 5.16992L30.6289 4.4991L32.6308 5.50008L32.2954 6.1709ZM30.2935 5.16992L29.5438 5.19261C29.4818 3.14279 27.8007 1.5 25.7358 1.5V0.75V0C28.6142 0 30.9566 2.28979 31.0431 5.14723L30.2935 5.16992Z" fill="#838383"/>
<path d="M27.8459 12.2012C28.2381 12.3343 28.4481 12.7603 28.3149 13.1525C28.1817 13.5447 27.7558 13.7547 27.3636 13.6215L27.6047 12.9113L27.8459 12.2012ZM21.0182 12.9113L20.8284 12.1857C22.2585 11.8115 23.3985 11.5967 24.4974 11.5902C25.6086 11.5837 26.6354 11.7901 27.8459 12.2012L27.6047 12.9113L27.3636 13.6215C26.262 13.2474 25.4054 13.0849 24.5063 13.0902C23.5949 13.0956 22.5976 13.2733 21.2081 13.6369L21.0182 12.9113Z" fill="#838383"/>
</svg>
