<svg width="38" height="38" viewBox="0 0 38 38" fill="none" xmlns="http://www.w3.org/2000/svg">
<path d="M0.75 20.7502V18.2502H2.75V15.7502H4.75" stroke="#363636" stroke-width="1.5" stroke-linecap="round" stroke-linejoin="round"/>
<path d="M30.75 1.75024L32.75 0.750244L33.75 2.75024L36.25 2.25024L36.75 4.75024" stroke="#363636" stroke-width="1.5" stroke-linecap="round" stroke-linejoin="round"/>
<path d="M19.2148 1.50024C20.1202 1.5003 20.7598 2.17062 20.7598 2.88501V17.1155C20.7598 17.5297 21.0956 17.8654 21.5098 17.8655H23.04C23.4542 17.8654 23.79 17.5296 23.79 17.1155V4.30786C23.7901 3.59344 24.4296 2.9231 25.335 2.9231C26.2403 2.92317 26.8798 3.59351 26.8799 4.30786V17.1155C26.8799 17.5297 27.2157 17.8655 27.6299 17.8655H29.1602C29.5743 17.8654 29.9102 17.5296 29.9102 17.1155V7.15454C29.9102 6.44009 30.5497 5.76978 31.4551 5.76978C32.3604 5.76986 33 6.44016 33 7.15454V29.2122C32.9998 33.463 29.2779 37 24.5703 37.0002H18.4502C15.7195 37.0002 13.3844 35.5394 12.2646 33.4553L12.2383 33.4094L4.70117 21.4915C4.30465 20.8643 4.50507 20.0315 5.24219 19.6282C6.00744 19.2098 6.97057 19.466 7.38965 20.1282L10.166 24.5178C10.3445 24.8 10.6881 24.93 11.0088 24.8372C11.3291 24.7442 11.5496 24.451 11.5498 24.1174V6.44263C11.5498 5.72818 12.1893 5.05786 13.0947 5.05786C14.0001 5.05791 14.6396 5.72823 14.6396 6.44263V17.1155C14.6396 17.5297 14.9755 17.8654 15.3896 17.8655H16.9199C17.3341 17.8654 17.6699 17.5296 17.6699 17.1155V2.88501C17.6699 2.21532 18.2318 1.58446 19.0479 1.50806L19.2148 1.50024Z" fill="#363636" stroke="#363636" stroke-width="1.5" stroke-linejoin="round"/>
</svg>
