<svg width="20" height="37" viewBox="0 0 20 37" fill="none" xmlns="http://www.w3.org/2000/svg">
<path d="M12.9944 1.30719L12.4107 0.836236C12.4032 0.845494 12.396 0.854928 12.3889 0.864531L12.9944 1.30719ZM14.7898 0.888519L14.4753 1.5694C14.5175 1.58889 14.5614 1.60442 14.6065 1.61578L14.7898 0.888519ZM14.7907 0.888757L15.106 0.208229C15.0636 0.188571 15.0194 0.172925 14.974 0.161496L14.7907 0.888757ZM15.6022 2.66431L16.323 2.87155L16.323 2.87152L15.6022 2.66431ZM12.2585 14.2936L11.5377 14.0863C11.4788 14.2913 11.5099 14.5117 11.6234 14.6924C11.7368 14.873 11.9218 14.9968 12.132 15.0328L12.2585 14.2936ZM17.5493 15.1989L17.7212 14.4688C17.7062 14.4653 17.691 14.4622 17.6758 14.4596L17.5493 15.1989ZM17.7327 15.2421L17.951 14.5245C17.9357 14.5199 17.9202 14.5157 17.9047 14.5121L17.7327 15.2421ZM18.5884 15.9149L19.2561 15.5733C19.2492 15.5598 19.2418 15.5465 19.2341 15.5334L18.5884 15.9149ZM18.6748 16.0837L19.3808 15.8308C19.37 15.8005 19.3571 15.7708 19.3424 15.7421L18.6748 16.0837ZM18.7386 16.262L19.4593 16.0543C19.4549 16.0391 19.45 16.024 19.4447 16.009L18.7386 16.262ZM18.5451 17.5093L19.1696 17.9247L19.1696 17.9247L18.5451 17.5093ZM6.63453 35.415L7.25874 35.8308L7.259 35.8304L6.63453 35.415ZM4.75766 35.9451L5.07179 35.2641C5.02969 35.2447 4.98589 35.2292 4.94094 35.2179L4.75766 35.9451ZM4.75672 35.9449L4.44167 36.6255C4.48405 36.6451 4.52816 36.6607 4.57344 36.6721L4.75672 35.9449ZM3.94531 34.1693L3.22449 33.9621L3.22448 33.9622L3.94531 34.1693ZM7.28846 22.538L8.00928 22.7451C8.06821 22.5401 8.03703 22.3196 7.92354 22.139C7.81005 21.9583 7.62499 21.8346 7.41469 21.7986L7.28846 22.538ZM1.99725 21.6345L1.87062 22.3738L1.87102 22.3738L1.99725 21.6345ZM0.872694 20.7499L0.183982 21.0468L0.184078 21.0471L0.872694 20.7499ZM0.999974 19.3257L0.61532 18.6819C0.519109 18.7393 0.437003 18.8176 0.375038 18.911L0.999974 19.3257ZM1.00116 19.325L1.38581 19.9688C1.48177 19.9115 1.5637 19.8335 1.62561 19.7404L1.00116 19.325ZM12.9129 1.41859L12.3075 0.975934C12.301 0.984878 12.2946 0.993966 12.2885 1.00319L12.9129 1.41859ZM12.9944 1.30719L13.5781 1.77814C13.7913 1.51383 14.1608 1.42412 14.4753 1.5694L14.7898 0.888519L15.1043 0.207635C14.1604 -0.228322 13.0522 0.0411772 12.4107 0.836236L12.9944 1.30719ZM14.7898 0.888519L14.6065 1.61578L14.6075 1.61602L14.7907 0.888757L14.974 0.161496L14.9731 0.161257L14.7898 0.888519ZM14.7907 0.888757L14.4755 1.56929C14.8108 1.72462 14.9836 2.10141 14.8813 2.4571L15.6022 2.66431L16.323 2.87152C16.6301 1.80303 16.1106 0.673612 15.106 0.208229L14.7907 0.888757ZM15.6022 2.66431L14.8814 2.45707L11.5377 14.0863L12.2585 14.2936L12.9793 14.5008L16.323 2.87155L15.6022 2.66431ZM12.2585 14.2936L12.132 15.0328L17.4228 15.9381L17.5493 15.1989L17.6758 14.4596L12.385 13.5543L12.2585 14.2936ZM17.5493 15.1989L17.3773 15.9289L17.5608 15.9721L17.7327 15.2421L17.9047 14.5121L17.7212 14.4688L17.5493 15.1989ZM17.7327 15.2421L17.5145 15.9596C17.6934 16.014 17.8469 16.1343 17.9427 16.2965L18.5884 15.9149L19.2341 15.5334C18.9473 15.0481 18.4887 14.6881 17.951 14.5245L17.7327 15.2421ZM18.5884 15.9149L17.9207 16.2566L18.0071 16.4254L18.6748 16.0837L19.3424 15.7421L19.2561 15.5733L18.5884 15.9149ZM18.6748 16.0837L17.9687 16.3367L18.0326 16.5149L18.7386 16.262L19.4447 16.009L19.3808 15.8308L18.6748 16.0837ZM18.7386 16.262L18.0179 16.4696C18.0784 16.6795 18.0437 16.9089 17.9207 17.094L18.5451 17.5093L19.1696 17.9247C19.5366 17.373 19.6418 16.6879 19.4593 16.0543L18.7386 16.262ZM18.5451 17.5093L17.9207 17.094L6.01007 34.9997L6.63453 35.415L7.259 35.8304L19.1696 17.9247L18.5451 17.5093ZM6.63453 35.415L6.01032 34.9993C5.80564 35.3066 5.40735 35.4188 5.07179 35.2641L4.75766 35.9451L4.44354 36.6262C5.44807 37.0895 6.64337 36.7547 7.25874 35.8308L6.63453 35.415ZM4.75766 35.9451L4.94094 35.2179L4.94 35.2176L4.75672 35.9449L4.57344 36.6721L4.57438 36.6724L4.75766 35.9451ZM4.75672 35.9449L5.07176 35.2643C4.73654 35.1091 4.56386 34.7324 4.66614 34.3765L3.94531 34.1693L3.22448 33.9622C2.91772 35.0298 3.43572 36.1599 4.44167 36.6255L4.75672 35.9449ZM3.94531 34.1693L4.66612 34.3765L8.00928 22.7451L7.28846 22.538L6.56765 22.3308L3.22449 33.9621L3.94531 34.1693ZM7.28846 22.538L7.41469 21.7986L2.12348 20.8952L1.99725 21.6345L1.87102 22.3738L7.16223 23.2773L7.28846 22.538ZM1.99725 21.6345L2.12388 20.8953C1.87386 20.8525 1.66183 20.6857 1.56131 20.4527L0.872694 20.7499L0.184078 21.0471C0.485556 21.7457 1.12037 22.2452 1.87062 22.3738L1.99725 21.6345ZM0.872694 20.7499L1.56141 20.4529C1.46124 20.2206 1.48452 19.952 1.62491 19.7404L0.999974 19.3257L0.375038 18.911C-0.047246 19.5474 -0.115721 20.3517 0.183982 21.0468L0.872694 20.7499ZM0.999974 19.3257L1.38463 19.9696L1.38581 19.9688L1.00116 19.325L0.616506 18.6811L0.61532 18.6819L0.999974 19.3257ZM1.00116 19.325L1.62561 19.7404L13.5374 1.83399L12.9129 1.41859L12.2885 1.00319L0.376706 18.9096L1.00116 19.325ZM12.9129 1.41859L13.5184 1.86125L13.5998 1.74985L12.9944 1.30719L12.3889 0.864531L12.3075 0.975934L12.9129 1.41859Z" fill="#838383"/>
</svg>
