<svg width="19" height="36" viewBox="0 0 19 36" fill="none" xmlns="http://www.w3.org/2000/svg">
<path d="M12.2444 0.557184C12.6717 0.0275911 13.4106 -0.152085 14.0398 0.138513L14.0407 0.138752C14.7105 0.449212 15.0568 1.20234 14.8521 1.91431L11.5085 13.5435L16.7992 14.4489L16.9827 14.4921C17.3409 14.6011 17.6471 14.8413 17.8384 15.1649L17.9247 15.3337L17.9886 15.512C18.11 15.9336 18.0401 16.391 17.7951 16.7593L5.8845 34.665C5.47458 35.2806 4.67767 35.5039 4.00763 35.1951L4.00669 35.1949C3.33604 34.8844 2.99065 34.1311 3.19528 33.4193L6.53843 21.7879L1.24722 20.8845C0.747102 20.7989 0.32369 20.4656 0.122664 19.9999C-0.077296 19.5361 -0.0314843 18.9997 0.249944 18.5757L0.25113 18.575L12.1629 0.668587L12.2444 0.557184Z" fill="#363636"/>
</svg>
