<svg width="20" height="20" viewBox="0 0 20 20" fill="none" xmlns="http://www.w3.org/2000/svg">
<path d="M9.83887 0.813477C9.93214 0.729148 10.0679 0.729148 10.1611 0.813477L19.1611 8.9502C19.2155 8.99948 19.25 9.07364 19.25 9.1543V18.9824C19.25 19.1421 19.126 19.25 19 19.25H14C13.8619 19.25 13.75 19.1381 13.75 19V13.2236C13.75 12.8094 13.4142 12.4736 13 12.4736H7C6.58579 12.4736 6.25 12.8094 6.25 13.2236V19C6.25 19.1381 6.13807 19.25 6 19.25H1C0.873989 19.25 0.750008 19.1421 0.75 18.9824V9.1543L0.755859 9.0957C0.768015 9.03827 0.797963 8.98726 0.838867 8.9502L9.83887 0.813477Z" stroke="#363636" stroke-width="1.5" stroke-linejoin="round"/>
</svg>
