<svg width="22" height="22" viewBox="0 0 22 22" fill="none" xmlns="http://www.w3.org/2000/svg">
<path d="M10.75 0.75L10.75 0H10.75V0.75ZM20.75 9.59082L21.5 9.59083V9.59082H20.75ZM10.75 18.4316V19.1816H10.75L10.75 18.4316ZM7.80469 18.041L8.00155 17.3173C7.80865 17.2648 7.60278 17.2916 7.42966 17.3915L7.80469 18.041ZM3.14355 20.7324L3.51574 21.3836L3.51859 21.3819L3.14355 20.7324ZM2.99609 20.7207L2.5266 21.3056L2.52905 21.3075L2.99609 20.7207ZM2.94531 20.5742L2.21126 20.4203L2.21093 20.422L2.94531 20.5742ZM3.89844 16.0273L4.63248 16.1812C4.68945 15.9095 4.59161 15.6285 4.37817 15.4508L3.89844 16.0273ZM0.75 9.59082H0V9.59083L0.75 9.59082ZM10.75 0.75L10.75 1.5C15.9262 1.50005 20 5.18534 20 9.59082H20.75H21.5C21.5 4.18391 16.5703 6.04391e-05 10.75 0L10.75 0.75ZM20.75 9.59082L20 9.59081C20 13.9963 15.9262 17.6816 10.75 17.6816L10.75 18.4316L10.75 19.1816C16.5703 19.1816 21.5 14.9977 21.5 9.59083L20.75 9.59082ZM10.75 18.4316V17.6816C9.79216 17.6816 8.86928 17.5534 8.00155 17.3173L7.80469 18.041L7.60783 18.7647C8.60274 19.0354 9.65799 19.1816 10.75 19.1816V18.4316ZM7.80469 18.041L7.42966 17.3915L2.76852 20.0829L3.14355 20.7324L3.51859 21.3819L8.17972 18.6905L7.80469 18.041ZM3.14355 20.7324L2.77138 20.0813C2.99377 19.9542 3.26836 19.9789 3.46314 20.1339L2.99609 20.7207L2.52905 21.3075C2.80939 21.5307 3.19919 21.5645 3.51573 21.3836L3.14355 20.7324ZM2.99609 20.7207L3.46558 20.1358C3.65354 20.2867 3.72263 20.5194 3.67969 20.7265L2.94531 20.5742L2.21093 20.422C2.14511 20.7394 2.25359 21.0864 2.5266 21.3056L2.99609 20.7207ZM2.94531 20.5742L3.67936 20.7281L4.63248 16.1812L3.89844 16.0273L3.16439 15.8735L2.21127 20.4203L2.94531 20.5742ZM3.89844 16.0273L4.37817 15.4508C2.59445 13.9665 1.50002 11.8843 1.5 9.59081L0.75 9.59082L0 9.59083C2.38419e-05 12.3849 1.33716 14.8717 3.4187 16.6038L3.89844 16.0273ZM0.75 9.59082H1.5C1.5 5.1853 5.57373 1.5 10.75 1.5V0.75V0C4.9296 0 0 4.18388 0 9.59082H0.75Z" fill="#363636"/>
</svg>
