<svg width="20" height="20" viewBox="0 0 20 20" fill="none" xmlns="http://www.w3.org/2000/svg">
<circle cx="9.99989" cy="5.55556" r="4.80556" stroke="#363636" stroke-width="1.5"/>
<mask id="path-2-inside-1_92_1680" fill="white">
<path d="M0 17.3335C0 15.1244 1.79086 13.3335 4 13.3335H16C18.2091 13.3335 20 15.1244 20 17.3335V19.0002C20 19.5524 19.5523 20.0002 19 20.0002H1C0.447715 20.0002 0 19.5524 0 19.0002V17.3335Z"/>
</mask>
<path d="M0 17.3335C0 15.1244 1.79086 13.3335 4 13.3335H16C18.2091 13.3335 20 15.1244 20 17.3335V19.0002C20 19.5524 19.5523 20.0002 19 20.0002H1C0.447715 20.0002 0 19.5524 0 19.0002V17.3335Z" stroke="#363636" stroke-width="3" mask="url(#path-2-inside-1_92_1680)"/>
</svg>
